# xmcd CD database file
# Copyright (C) 1993-1998 Ti Kan
# 
# Track frame offsets:
#     150
#     11197
#     29500
#     42302
#     67240
#     85522
#     96545
#     111005
#     136297
#     155365
#     176605
#     188822
#     202560
#     216525
#     229220
#     243152
#     258322
#     276782
#     289182
#     302937
# 
# Disc length: 4355 seconds
# 
# Revision: 1
# Processed by: cddbd v1.4b41PL1 Copyright (c) Steve Scherf et al.
# Submitted via: DiscPlay 4.0.4
# 
DISCID=24110114
DTITLE=David Allan Coe - The Mysterious Rhinestone Cowboy - Once Upon A Time
DYEAR=1900
DGENRE=
TTITLE0=A Sad Country Song
TTITLE1=Crazy mary
TTITLE2=River
TTITLE3=The 3rd Of August
TTITLE4=Bossier City
TTITLE5=Atlanta Song
TTITLE6=Old Man Tell Me
TTITLE7=Desperados Waiting For The Train
TTITLE8=I Still Sing The Old Songs
TTITLE9=The Old Grey Goose Is Dead
TTITLE10=Would You Lay With Me (In A Field Of Stone)
TTITLE11=Jody Like A Melody
TTITLE12=Loneliness In Ruby's Eyes
TTITLE13=Would You Be My Lady
TTITLE14=Sweet Vibrations
TTITLE15=Another Pretty Country Song
TTITLE16=Piece Of Wood And Steel
TTITLE17=Fraulein
TTITLE18=Shine It On
TTITLE19=You Never Even Called Me By My Name
EXTD=
EXTT0=
EXTT1=
EXTT2=
EXTT3=
EXTT4=
EXTT5=
EXTT6=
EXTT7=
EXTT8=
EXTT9=
EXTT10=
EXTT11=
EXTT12=
EXTT13=
EXTT14=
EXTT15=
EXTT16=
EXTT17=
EXTT18=
EXTT19=
PLAYORDER=
